<svg width="800" height="165" viewBox="0 0 800 165" fill="none" xmlns="http://www.w3.org/2000/svg">
<path d="M98.6776 64.1951L79.8286 3.35101L60.9812 64.1951H0L49.3388 101.797L30.4914 162.649L79.8286 125.031L129.167 162.649L110.32 101.797L159.659 64.1951H98.6776Z" fill="#FFC800" stroke="#FFC800" stroke-width="1.63265"/>
<path d="M258.763 64.1951L239.915 3.35101L221.066 64.1951H160.085L209.424 101.797L190.576 162.649L239.915 125.031L289.254 162.649L270.405 101.797L319.744 64.1951H258.763Z" fill="#FFC800" stroke="#FFC800" stroke-width="1.63265"/>
<path d="M418.847 64.1951L400 3.35101L381.153 64.1951H320.17L369.509 101.797L350.661 162.649L400 125.031L449.339 162.649L430.491 101.797L479.829 64.1951H418.847Z" fill="#FFC800" stroke="#FFC800" stroke-width="1.63265"/>
<path d="M578.932 64.1951L560.085 3.35101L541.238 64.1951H480.256L529.595 101.797L510.746 162.649L560.085 125.031L609.424 162.649L590.576 101.797L639.915 64.1951H578.932Z" fill="#FFC800" stroke="#FFC800" stroke-width="1.63265"/>
<path d="M720.172 3.35101L701.323 64.1951H640.341L689.68 101.797L670.833 162.649L720.172 125.031L769.509 162.649L750.661 101.797L800 64.1951H739.019L720.172 3.35101Z" fill="#FFC800" stroke="#FFC800" stroke-width="1.63265"/>
</svg>
