<?xml version="1.0" standalone="no"?>
<!DOCTYPE svg PUBLIC "-//W3C//DTD SVG 20010904//EN"
 "http://www.w3.org/TR/2001/REC-SVG-20010904/DTD/svg10.dtd">
<svg version="1.0" xmlns="http://www.w3.org/2000/svg"
 width="1536.000000pt" height="1024.000000pt" viewBox="0 0 1536.000000 1024.000000"
 preserveAspectRatio="xMidYMid meet">

<g transform="translate(0.000000,1024.000000) scale(0.100000,-0.100000)"
fill="#000000" stroke="none">
<path d="M4074 9229 c-119 -14 -243 -67 -338 -145 -118 -96 -219 -252 -251
-387 -19 -81 -19 -286 0 -402 28 -175 95 -449 113 -463 11 -9 38 -12 78 -10
79 5 175 52 250 121 l56 52 -36 53 c-43 65 -56 108 -56 190 0 74 15 116 59
160 66 66 154 65 230 -3 33 -30 53 -66 90 -158 l11 -28 40 21 c98 50 220 236
220 335 0 37 14 38 77 1 97 -58 174 -79 301 -84 108 -4 115 -3 168 24 137 69
201 264 134 406 -28 61 -83 116 -138 140 -39 18 -57 19 -137 13 l-93 -7 -191
65 c-281 97 -434 124 -587 106z"/>
<path d="M10343 8303 c9 -2 23 -2 30 0 6 3 -1 5 -18 5 -16 0 -22 -2 -12 -5z"/>
<path d="M4784 8289 c-46 -13 -62 -35 -41 -57 21 -20 144 -30 176 -13 27 15
28 57 2 71 -23 12 -94 12 -137 -1z"/>
<path d="M10298 8263 c7 -3 16 -2 19 1 4 3 -2 6 -13 5 -11 0 -14 -3 -6 -6z"/>
<path d="M4796 8105 c-9 -24 -7 -78 3 -94 24 -38 62 28 45 78 -11 30 -39 39
-48 16z"/>
<path d="M9777 8019 c7 -7 15 -10 18 -7 3 3 -2 9 -12 12 -14 6 -15 5 -6 -5z"/>
<path d="M10045 8019 c-4 -6 -14 -8 -24 -4 -13 5 -14 4 -3 -6 10 -11 15 -10
29 4 10 9 14 17 11 17 -4 0 -10 -5 -13 -11z"/>
<path d="M12225 7710 c-147 -20 -216 -37 -342 -81 -294 -104 -525 -289 -674
-539 -106 -180 -121 -351 -47 -550 40 -109 84 -183 146 -245 l49 -50 -38 -47
c-87 -110 -125 -247 -116 -422 13 -282 169 -485 406 -530 163 -31 333 -16 441
39 l51 26 84 -64 c242 -181 485 -278 705 -280 58 0 130 5 160 13 178 41 379
254 446 473 17 53 20 57 49 57 54 0 158 30 234 66 98 48 212 160 264 261 98
189 102 416 10 596 -32 64 -131 163 -200 200 -28 15 -85 36 -125 45 -72 18
-73 19 -76 53 -8 78 -42 220 -74 305 -107 286 -324 516 -572 609 -38 14 -144
39 -235 55 -196 35 -340 38 -546 10z"/>
<path d="M6471 7654 c-33 -32 -67 -94 -180 -332 -117 -246 -136 -292 -118
-286 12 3 25 9 28 13 4 3 62 121 129 261 67 140 132 265 143 278 25 27 53 28
297 7 203 -17 216 -20 224 -40 3 -8 -39 -110 -95 -228 -302 -638 -424 -894
-436 -914 -8 -12 -29 -28 -46 -36 -29 -14 -49 -14 -196 1 -130 12 -166 13
-169 3 -2 -6 -19 -35 -38 -63 -19 -28 -32 -53 -29 -56 7 -8 85 -18 287 -38
l188 -18 42 30 c54 37 105 136 441 854 22 47 75 159 118 249 94 195 100 232
47 285 -33 32 -35 33 -176 45 -79 6 -205 14 -281 18 l-139 6 -41 -39z"/>
<path d="M4212 7270 c0 -14 2 -19 5 -12 2 6 2 18 0 25 -3 6 -5 1 -5 -13z"/>
<path d="M1537 7118 c-40 -24 -77 -86 -77 -130 0 -33 37 -87 80 -116 l35 -23
315 2 c217 1 322 -2 337 -9 52 -28 50 12 57 -1229 l7 -1152 -58 -16 c-252 -71
-450 -175 -664 -351 -423 -349 -683 -950 -655 -1514 24 -502 212 -939 546
-1270 240 -238 582 -409 914 -456 129 -19 357 -14 496 10 304 53 618 209 850
422 276 255 457 552 556 917 71 264 82 602 28 885 -8 41 -14 76 -14 78 0 2
102 4 228 4 237 -1 280 -7 324 -47 42 -37 55 -75 168 -463 40 -135 85 -288
102 -340 16 -52 32 -117 34 -145 5 -47 2 -56 -46 -133 -42 -66 -56 -82 -71
-77 -10 4 -69 6 -131 6 -141 1 -216 -21 -322 -92 -292 -195 -341 -591 -106
-843 163 -174 414 -216 630 -106 208 106 321 323 291 558 -13 103 -103 270
-161 299 -14 7 -20 13 -15 13 6 0 16 12 23 27 19 43 48 77 59 70 6 -4 18 -39
28 -79 9 -40 24 -85 31 -100 8 -15 14 -39 14 -55 0 -15 18 -81 39 -148 22 -66
44 -139 51 -163 6 -23 15 -40 19 -37 5 2 8 -3 7 -13 0 -9 5 -16 12 -14 8 1 11
-2 7 -8 -8 -13 14 -42 26 -34 5 3 9 2 8 -3 -4 -23 2 -35 16 -29 8 3 14 0 12
-7 -1 -7 23 -24 53 -39 54 -27 59 -27 237 -28 l182 0 34 -52 c78 -121 208
-205 340 -221 105 -13 252 34 345 110 24 20 66 65 94 99 l50 64 259 0 260 0
24 25 c33 32 33 78 0 111 -23 23 -30 25 -112 21 -54 -3 -67 -2 -33 2 51 6 56
8 74 44 24 50 15 100 -27 142 -26 26 -68 44 -222 95 -223 73 -362 136 -399
180 -36 44 -34 60 9 60 40 0 40 -1 25 120 -5 41 -16 138 -24 215 -120 1127
-183 1620 -232 1818 -72 286 -166 404 -384 481 -107 39 -235 53 -575 65 -165
6 -415 16 -555 21 -140 6 -339 13 -442 17 l-186 6 -20 36 c-25 43 -93 110
-144 140 -20 12 -69 30 -110 40 -68 18 -121 19 -827 20 -415 1 -756 3 -757 4
-1 1 -4 376 -8 832 -4 696 -3 843 9 909 8 43 11 84 8 90 -4 5 -10 53 -13 106
-5 62 -14 112 -27 141 -24 55 -91 132 -106 122 -5 -3 -7 -1 -3 5 9 15 -39 50
-93 66 -26 7 -64 25 -85 40 l-39 26 -286 0 c-275 0 -287 -1 -324 -22z m2546
-2586 c77 -39 119 -105 143 -229 l7 -33 -368 0 -367 0 -122 59 c-239 117 -411
159 -688 168 l-188 6 0 28 0 27 768 -1 767 -2 48 -23z m-1790 -809 c4 -141 7
-395 7 -564 0 -289 -1 -312 -21 -361 -80 -202 26 -425 231 -485 130 -38 285
23 367 145 51 76 63 115 63 209 0 103 -28 173 -99 244 -75 75 -136 98 -266
100 -54 1 -92 4 -87 8 6 4 12 38 14 76 l3 70 645 0 644 0 23 -68 c58 -168 69
-496 24 -705 -43 -195 -126 -393 -232 -549 -60 -87 -225 -259 -309 -320 -266
-192 -595 -272 -905 -218 -469 82 -868 468 -1008 975 -40 143 -50 252 -44 440
8 225 49 383 152 585 113 222 270 398 473 530 88 56 270 142 308 144 7 1 13
-80 17 -256z m1348 50 c13 -16 12 -17 -3 -4 -17 13 -22 21 -14 21 2 0 10 -8
17 -17z m1399 -1843 c-6 -11 -13 -20 -16 -20 -2 0 0 9 6 20 6 11 13 20 16 20
2 0 0 -9 -6 -20z"/>
<path d="M6067 6823 c-17 -9 -36 -33 -48 -60 -23 -54 -23 -53 -1 -53 12 0 28
21 50 65 17 36 31 65 29 64 -1 -1 -15 -8 -30 -16z"/>
<path d="M3570 6741 c0 -5 26 -56 59 -113 152 -268 312 -583 307 -604 -5 -18
-2 -21 13 -17 44 11 34 51 -52 213 -31 58 -61 104 -66 103 -6 -2 -8 3 -6 10 5
11 -136 276 -200 377 -23 36 -55 54 -55 31z"/>
<path d="M5918 6733 c7 -3 16 -2 19 1 4 3 -2 6 -13 5 -11 0 -14 -3 -6 -6z"/>
<path d="M4470 6190 c0 -177 4 -320 9 -320 27 0 30 35 27 305 -4 353 -3 335
-21 335 -13 0 -15 -42 -15 -320z"/>
<path d="M5898 6253 c7 -3 16 -2 19 1 4 3 -2 6 -13 5 -11 0 -14 -3 -6 -6z"/>
<path d="M5823 6243 c9 -2 25 -2 35 0 9 3 1 5 -18 5 -19 0 -27 -2 -17 -5z"/>
<path d="M2751 6136 c-12 -15 -7 -41 8 -32 3 3 7 -3 7 -12 0 -24 174 -293 185
-287 5 4 6 0 4 -7 -3 -7 32 -69 77 -138 69 -104 88 -126 111 -128 19 -2 27 1
27 12 0 9 -7 16 -15 16 -8 0 -20 10 -26 23 -42 78 -203 316 -212 310 -6 -3 -7
-1 -3 5 4 7 -20 54 -54 107 -58 89 -80 115 -66 79 3 -9 2 -12 -5 -9 -5 4 -7
14 -4 24 3 9 -1 25 -8 35 -12 16 -14 16 -26 2z m367 -581 c-3 -3 -9 2 -12 12
-6 14 -5 15 5 6 7 -7 10 -15 7 -18z"/>
<path d="M7205 5902 c-81 -14 -157 -71 -171 -127 -11 -46 3 -146 79 -560 42
-225 82 -448 91 -495 8 -47 33 -184 55 -305 47 -255 182 -1007 212 -1175 11
-63 29 -160 39 -215 11 -55 29 -151 40 -214 25 -134 38 -164 91 -211 l40 -35
-11 -48 c-13 -59 0 -114 32 -144 13 -11 79 -43 148 -71 69 -28 175 -72 235
-97 61 -26 153 -64 205 -85 52 -21 178 -73 280 -115 102 -43 232 -97 290 -120
194 -79 274 -112 450 -186 l175 -74 303 1 c248 2 302 -1 302 -12 0 -7 -9 -38
-21 -69 -11 -31 -18 -63 -15 -71 3 -9 1 -12 -4 -9 -6 3 -10 4 -10 2 0 -2 -36
-109 -80 -237 -46 -134 -80 -249 -80 -272 0 -30 8 -47 34 -76 l34 -37 2099 -3
c2100 -3 2186 -2 2167 30 -4 7 -3 8 5 4 25 -16 129 73 114 97 -3 6 -1 7 6 3
29 -18 59 142 81 429 6 77 15 190 20 250 9 103 21 272 52 735 7 107 13 339 13
515 0 347 -11 459 -61 634 -27 95 -113 276 -131 276 -6 0 -15 4 -20 9 -5 5 -3
6 5 2 24 -14 11 10 -41 74 -29 36 -59 65 -67 65 -8 1 -14 6 -13 12 2 7 -25 37
-60 67 -60 54 -86 70 -71 44 4 -8 3 -10 -2 -5 -5 5 -9 12 -9 15 0 13 -16 32
-27 32 -6 0 -5 -7 3 -17 11 -16 11 -16 -1 -5 -8 7 -15 18 -15 24 0 32 -283
170 -473 232 -200 65 -277 78 -495 83 -304 8 -525 -18 -872 -102 -278 -67
-499 -146 -719 -257 -147 -74 -353 -219 -340 -240 5 -7 2 -8 -5 -3 -9 5 -32
-12 -67 -46 -51 -50 -75 -88 -36 -58 15 13 16 12 3 -3 -7 -10 -17 -16 -21 -13
-12 8 -53 -43 -45 -56 5 -7 4 -10 -3 -5 -15 9 -98 -110 -158 -227 -26 -51 -89
-202 -140 -337 l-93 -245 -1357 0 -1357 0 -44 250 c-64 365 -462 2557 -469
2578 -5 16 89 17 1875 17 l1881 0 0 53 c0 28 3 75 6 102 l6 50 -1923 0 c-1058
1 -1933 -1 -1944 -3z m6152 -1508 c-3 -3 -12 -4 -19 -1 -8 3 -5 6 6 6 11 1 17
-2 13 -5z m-2307 -597 c0 -2 -10 -12 -22 -23 l-23 -19 19 23 c18 21 26 27 26
19z m-349 -540 c-10 -9 -11 -8 -5 6 3 10 9 15 12 12 3 -3 0 -11 -7 -18z m3786
-639 c-3 -7 -5 -2 -5 12 0 14 2 19 5 13 2 -7 2 -19 0 -25z m-390 -50 c-3 -8
-6 -5 -6 6 -1 11 2 17 5 13 3 -3 4 -12 1 -19z m60 -30 c-3 -8 -6 -5 -6 6 -1
11 2 17 5 13 3 -3 4 -12 1 -19z m320 -120 c-3 -7 -5 -2 -5 12 0 14 2 19 5 13
2 -7 2 -19 0 -25z m-2914 -163 c-3 -9 -8 -14 -10 -11 -3 3 -2 9 2 15 9 16 15
13 8 -4z m2474 -47 c-3 -8 -6 -5 -6 6 -1 11 2 17 5 13 3 -3 4 -12 1 -19z
m-2484 -203 c-3 -9 -8 -14 -10 -11 -3 3 -2 9 2 15 9 16 15 13 8 -4z m2894 -57
c-3 -7 -5 -2 -5 12 0 14 2 19 5 13 2 -7 2 -19 0 -25z m-450 -20 c-3 -8 -6 -5
-6 6 -1 11 2 17 5 13 3 -3 4 -12 1 -19z m60 -10 c-3 -8 -6 -5 -6 6 -1 11 2 17
5 13 3 -3 4 -12 1 -19z m-70 -30 c-3 -8 -6 -5 -6 6 -1 11 2 17 5 13 3 -3 4
-12 1 -19z m-2574 -43 c-3 -9 -8 -14 -10 -11 -3 3 -2 9 2 15 9 16 15 13 8 -4z
m3014 -187 c-3 -8 -6 -5 -6 6 -1 11 2 17 5 13 3 -3 4 -12 1 -19z m-3116 -89
c-5 -13 -10 -19 -10 -12 -1 15 10 45 15 40 3 -2 0 -15 -5 -28z m-30 -72 c-10
-9 -11 -8 -5 6 3 10 9 15 12 12 3 -3 0 -11 -7 -18z m2646 1 c-3 -8 -6 -5 -6 6
-1 11 2 17 5 13 3 -3 4 -12 1 -19z m-2660 -50 c-3 -8 -6 -5 -6 6 -1 11 2 17 5
13 3 -3 4 -12 1 -19z m2640 -70 c-3 -8 -6 -5 -6 6 -1 11 2 17 5 13 3 -3 4 -12
1 -19z m20 -290 c-3 -8 -6 -5 -6 6 -1 11 2 17 5 13 3 -3 4 -12 1 -19z m-80
-120 c-3 -7 -5 -2 -5 12 0 14 2 19 5 13 2 -7 2 -19 0 -25z m-2756 -1 c-10 -9
-11 -8 -5 6 3 10 9 15 12 12 3 -3 0 -11 -7 -18z m3229 -21 c0 -2 -8 -10 -17
-17 -16 -13 -17 -12 -4 4 13 16 21 21 21 13z m-4400 -51 c0 -5 -5 -3 -10 5 -5
8 -10 20 -10 25 0 6 5 3 10 -5 5 -8 10 -19 10 -25z m1227 -27 c-3 -8 -6 -5 -6
6 -1 11 2 17 5 13 3 -3 4 -12 1 -19z"/>
<path d="M5200 5645 c17 -25 33 -45 36 -45 3 0 -9 20 -26 45 -17 25 -33 45
-36 45 -3 0 9 -20 26 -45z"/>
<path d="M5255 5566 c10 -14 19 -26 22 -26 7 0 -17 39 -28 46 -6 3 -3 -5 6
-20z"/>
<path d="M4690 5115 c13 -14 26 -25 28 -25 3 0 -5 11 -18 25 -13 14 -26 25
-28 25 -3 0 5 -11 18 -25z"/>
<path d="M8508 4808 c6 -6 18 -8 28 -6 14 3 12 5 -9 10 -19 3 -25 2 -19 -4z"/>
<path d="M8908 4803 c7 -3 16 -2 19 1 4 3 -2 6 -13 5 -11 0 -14 -3 -6 -6z"/>
<path d="M9058 4803 c12 -2 32 -2 45 0 12 2 2 4 -23 4 -25 0 -35 -2 -22 -4z"/>
<path d="M9318 4803 c7 -3 16 -2 19 1 4 3 -2 6 -13 5 -11 0 -14 -3 -6 -6z"/>
<path d="M9473 4803 c9 -2 25 -2 35 0 9 3 1 5 -18 5 -19 0 -27 -2 -17 -5z"/>
<path d="M9618 4803 c7 -3 16 -2 19 1 4 3 -2 6 -13 5 -11 0 -14 -3 -6 -6z"/>
<path d="M9843 4803 c9 -2 23 -2 30 0 6 3 -1 5 -18 5 -16 0 -22 -2 -12 -5z"/>
<path d="M9958 4803 c7 -3 16 -2 19 1 4 3 -2 6 -13 5 -11 0 -14 -3 -6 -6z"/>
<path d="M10263 4803 c9 -2 23 -2 30 0 6 3 -1 5 -18 5 -16 0 -22 -2 -12 -5z"/>
<path d="M8988 4553 c7 -3 16 -2 19 1 4 3 -2 6 -13 5 -11 0 -14 -3 -6 -6z"/>
<path d="M9048 4553 c7 -3 16 -2 19 1 4 3 -2 6 -13 5 -11 0 -14 -3 -6 -6z"/>
<path d="M9868 4553 c7 -3 16 -2 19 1 4 3 -2 6 -13 5 -11 0 -14 -3 -6 -6z"/>
<path d="M9398 4463 c12 -2 32 -2 45 0 12 2 2 4 -23 4 -25 0 -35 -2 -22 -4z"/>
<path d="M9508 4463 c7 -3 16 -2 19 1 4 3 -2 6 -13 5 -11 0 -14 -3 -6 -6z"/>
<path d="M9488 4123 c7 -3 16 -2 19 1 4 3 -2 6 -13 5 -11 0 -14 -3 -6 -6z"/>
</g>
</svg>
